<?xml version="1.0" encoding="UTF-8" ?>
<!DOCTYPE svg PUBLIC "-//W3C//DTD SVG 1.1//EN" "http://www.w3.org/Graphics/SVG/1.1/DTD/svg11.dtd">
<svg width="64pt" height="64pt" viewBox="0 0 64 64" version="1.1" xmlns="http://www.w3.org/2000/svg">
<g id="#3f3e40fe">
<path fill="#3f3e40" opacity="1.00" d=" M 24.50 2.86 C 40.45 -1.85 58.55 9.70 61.40 25.99 C 65.11 41.54 53.80 58.47 38.16 61.36 C 22.71 65.15 5.81 54.11 2.66 38.61 C -1.33 23.35 9.24 6.44 24.50 2.86 M 31.45 21.58 C 36.18 22.93 39.44 17.50 39.41 13.39 C 35.03 13.75 32.24 17.55 31.45 21.58 M 32.09 23.95 C 29.69 23.65 27.46 22.14 24.97 22.61 C 20.60 23.34 17.51 27.56 17.30 31.85 C 16.79 38.41 19.44 45.30 24.41 49.64 C 27.37 52.01 30.76 48.00 33.93 49.07 C 36.11 49.58 38.52 51.23 40.69 49.80 C 43.75 47.71 45.27 44.10 46.79 40.85 C 44.37 39.30 42.17 37.06 41.87 34.05 C 41.33 30.73 43.48 27.89 45.83 25.85 C 44.18 24.19 42.22 22.62 39.78 22.47 C 37.09 22.04 34.70 23.72 32.09 23.95 Z" />
</g>
</svg>
