<?xml version="1.0" encoding="UTF-8" ?>
<!DOCTYPE svg PUBLIC "-//W3C//DTD SVG 1.1//EN" "http://www.w3.org/Graphics/SVG/1.1/DTD/svg11.dtd">
<svg width="64pt" height="64pt" viewBox="0 0 64 64" version="1.1" xmlns="http://www.w3.org/2000/svg">
<g id="#3f3e40fe">
<path fill="#3f3e40" opacity="1.00" d=" M 28.36 2.18 C 43.50 -0.05 58.95 11.33 61.49 26.39 C 64.92 41.81 53.73 58.42 38.28 61.35 C 22.39 65.31 5.04 53.52 2.48 37.44 C -1.11 21.10 11.79 3.82 28.36 2.18 M 30.63 15.45 C 27.56 18.70 28.44 23.47 28.32 27.52 C 26.28 27.54 24.24 27.54 22.20 27.55 C 22.20 29.92 22.20 32.29 22.20 34.65 C 24.24 34.66 26.28 34.66 28.32 34.67 C 28.33 40.74 28.33 46.81 28.32 52.88 C 30.77 52.88 33.21 52.88 35.66 52.88 C 35.66 46.81 35.65 40.73 35.67 34.66 C 37.70 34.67 39.74 34.67 41.78 34.68 C 42.11 32.31 42.52 29.94 42.73 27.55 C 40.37 27.54 38.00 27.54 35.64 27.53 C 35.66 25.44 35.53 23.33 35.84 21.25 C 37.12 18.60 40.56 19.81 42.91 19.47 C 42.88 17.27 42.82 15.08 42.78 12.89 C 38.67 12.77 33.75 12.16 30.63 15.45 Z" />
</g>
</svg>
