<?xml version="1.0" encoding="UTF-8" ?>
<!DOCTYPE svg PUBLIC "-//W3C//DTD SVG 1.1//EN" "http://www.w3.org/Graphics/SVG/1.1/DTD/svg11.dtd">
<svg width="64pt" height="64pt" viewBox="0 0 64 64" version="1.1" xmlns="http://www.w3.org/2000/svg">
<g id="#3f3e40fe">
<path fill="#3f3e40" opacity="1.00" d=" M 28.22 2.20 C 41.71 0.23 55.71 9.00 60.09 21.88 C 64.43 33.37 60.55 47.22 51.05 54.94 C 41.24 63.41 25.82 64.21 15.18 56.81 C 7.90 51.92 2.97 43.78 2.04 35.05 C 0.03 19.40 12.50 3.77 28.22 2.20 M 19.36 17.45 C 18.02 17.40 17.16 18.87 17.35 20.09 C 17.31 28.05 17.28 36.02 17.36 43.98 C 17.11 45.52 18.63 46.72 20.09 46.50 C 28.02 46.51 35.94 46.56 43.87 46.47 C 45.20 46.67 46.62 45.43 46.41 44.04 C 46.45 35.66 46.59 27.26 46.34 18.88 C 45.63 17.05 43.60 17.43 42.05 17.36 C 34.49 17.45 26.92 17.25 19.36 17.45 Z" />
<path fill="#3f3e40" opacity="1.00" d=" M 37.81 20.72 C 39.69 20.60 41.57 20.56 43.45 20.50 C 43.76 22.42 43.75 24.39 43.43 26.32 C 41.79 26.32 40.15 26.35 38.50 26.42 C 37.47 24.69 37.85 22.62 37.81 20.72 Z" />
<path fill="#3f3e40" opacity="1.00" d=" M 29.24 26.24 C 33.21 23.88 38.76 27.45 38.49 32.00 C 38.65 36.80 32.52 40.17 28.62 37.24 C 24.53 34.86 24.91 28.14 29.24 26.24 Z" />
<path fill="#3f3e40" opacity="1.00" d=" M 19.77 29.69 C 20.66 29.68 22.43 29.66 23.31 29.64 C 23.18 32.45 23.22 35.57 25.39 37.68 C 28.76 42.00 36.14 41.73 39.24 37.23 C 41.08 35.14 40.87 32.25 40.86 29.67 C 41.60 29.67 43.09 29.66 43.83 29.66 C 43.85 34.38 43.83 39.10 43.86 43.81 C 40.58 44.07 37.29 44.04 34.01 43.88 C 29.25 43.66 24.47 44.59 19.74 43.78 C 19.79 39.08 19.76 34.39 19.77 29.69 Z" />
</g>
</svg>
