<?xml version="1.0" encoding="UTF-8" ?>
<!DOCTYPE svg PUBLIC "-//W3C//DTD SVG 1.1//EN" "http://www.w3.org/Graphics/SVG/1.1/DTD/svg11.dtd">
<svg width="64pt" height="64pt" viewBox="0 0 64 64" version="1.1" xmlns="http://www.w3.org/2000/svg">
<g id="#3f3e40fe">
<path fill="#3f3e40" opacity="1.00" d=" M 26.36 2.43 C 41.23 -0.82 57.26 9.36 60.97 24.06 C 65.15 38.09 57.16 54.22 43.61 59.62 C 33.80 63.78 21.78 62.24 13.46 55.54 C 5.02 49.00 0.53 37.76 2.34 27.21 C 4.16 15.01 14.22 4.64 26.36 2.43 M 33.85 22.92 C 33.50 29.13 33.33 35.38 34.07 41.57 C 39.63 41.83 45.23 42.08 50.77 41.49 C 54.45 41.29 56.45 36.59 54.66 33.57 C 53.26 32.04 51.24 31.30 49.53 30.20 C 46.44 28.46 45.05 24.82 42.00 23.03 C 39.45 21.69 36.49 22.15 33.85 22.92 M 30.59 24.49 C 29.59 30.41 29.54 36.47 30.53 42.40 C 31.90 36.53 31.83 30.37 30.59 24.49 M 23.28 42.36 C 24.03 36.82 23.93 31.20 23.24 25.67 C 22.14 31.16 21.98 36.89 23.28 42.36 M 26.59 25.78 C 25.89 31.29 26.06 36.89 26.74 42.40 C 27.59 36.99 28.82 30.96 26.59 25.78 M 19.60 41.43 C 20.30 37.21 20.19 32.92 19.56 28.70 C 18.65 32.89 18.50 37.26 19.60 41.43 M 15.68 31.55 C 15.31 34.84 15.31 38.16 15.67 41.46 C 16.64 38.22 16.64 34.79 15.68 31.55 M 12.39 40.37 C 12.60 37.79 12.60 35.20 12.39 32.63 C 11.72 35.17 11.72 37.82 12.39 40.37 Z" />
</g>
</svg>
