<?xml version="1.0" encoding="UTF-8" ?>
<!DOCTYPE svg PUBLIC "-//W3C//DTD SVG 1.1//EN" "http://www.w3.org/Graphics/SVG/1.1/DTD/svg11.dtd">
<svg width="64pt" height="64pt" viewBox="0 0 64 64" version="1.1" xmlns="http://www.w3.org/2000/svg">
<g id="#3f3e40fe">
<path fill="#3f3e40" opacity="1.00" d=" M 24.51 2.76 C 41.13 -2.08 59.77 10.76 61.62 27.86 C 63.98 42.62 53.53 57.90 38.98 61.14 C 23.84 65.39 6.70 55.22 2.86 40.03 C -2.14 24.41 8.59 6.31 24.51 2.76 M 36.32 18.41 C 33.15 19.82 32.14 23.45 32.26 26.65 C 26.56 26.05 21.32 23.26 17.53 18.98 C 15.79 22.39 16.96 26.18 19.60 28.71 C 18.79 28.54 17.19 28.19 16.38 28.01 C 17.00 31.28 19.12 34.02 22.31 35.12 C 21.46 35.20 19.77 35.36 18.92 35.44 C 20.53 37.91 22.83 39.73 25.79 40.21 C 22.69 42.29 19.02 43.06 15.39 43.62 C 20.46 45.64 26.05 47.22 31.47 45.63 C 40.74 43.56 47.11 34.23 46.86 24.93 C 48.05 23.75 49.24 22.58 50.43 21.42 C 49.50 21.54 47.64 21.78 46.70 21.90 C 47.44 21.01 48.91 19.24 49.65 18.35 C 48.50 18.73 46.22 19.49 45.07 19.87 C 42.61 17.98 39.24 16.68 36.32 18.41 Z" />
</g>
</svg>
