<?xml version="1.0" encoding="UTF-8" ?>
<!DOCTYPE svg PUBLIC "-//W3C//DTD SVG 1.1//EN" "http://www.w3.org/Graphics/SVG/1.1/DTD/svg11.dtd">
<svg width="64pt" height="64pt" viewBox="0 0 64 64" version="1.1" xmlns="http://www.w3.org/2000/svg">
<g id="#3f3e40fe">
<path fill="#3f3e40" opacity="1.00" d=" M 26.35 2.36 C 41.79 -1.00 58.32 10.16 61.35 25.59 C 64.94 40.38 55.27 56.62 40.70 60.77 C 26.52 65.54 9.74 57.57 4.21 43.73 C -1.78 30.75 3.57 14.09 15.66 6.64 C 18.91 4.56 22.56 3.10 26.35 2.36 M 19.43 20.76 C 16.64 20.91 15.73 23.89 15.48 26.20 C 15.03 30.81 14.83 35.58 16.00 40.10 C 16.66 43.27 20.42 43.34 22.99 43.55 C 30.10 43.68 37.28 44.09 44.34 43.15 C 47.04 43.02 48.04 40.30 48.27 38.01 C 48.85 33.17 49.03 28.10 47.64 23.38 C 46.92 20.49 43.43 20.63 41.09 20.39 C 33.88 20.27 26.60 19.89 19.43 20.76 Z" />
<path fill="#3f3e40" opacity="1.00" d=" M 28.44 27.11 C 31.48 28.33 34.39 29.87 37.09 31.75 C 34.36 33.42 31.49 34.85 28.49 35.99 C 28.35 33.03 28.33 30.07 28.44 27.11 Z" />
</g>
</svg>
